<?xml version="1.0" encoding="utf-8"?>
<!-- Generator: Adobe Illustrator 16.0.4, SVG Export Plug-In . SVG Version: 6.00 Build 0)  -->
<!DOCTYPE svg PUBLIC "-//W3C//DTD SVG 1.1//EN" "http://www.w3.org/Graphics/SVG/1.1/DTD/svg11.dtd">
<svg version="1.1" id="Layer_1" xmlns="http://www.w3.org/2000/svg" xmlns:xlink="http://www.w3.org/1999/xlink" x="0px" y="0px"
	 width="70px" height="70px" viewBox="0 0 70 70" enable-background="new 0 0 70 70" xml:space="preserve">
<g>
	<path fill="#FFFFFF" d="M42.805,45.537c1.371,0,2.659,0.339,3.867,1.026c1.205,0.686,2.146,1.617,2.824,2.791
		c0.676,1.176,1.014,2.443,1.014,3.807c0,1.371-0.34,2.654-1.021,3.845c-0.683,1.194-1.61,2.127-2.785,2.798
		c-1.172,0.672-2.469,1.009-3.885,1.009c-2.085,0-3.863-0.741-5.335-2.223c-1.476-1.484-2.21-3.282-2.21-5.403
		c0-2.27,0.831-4.162,2.496-5.675C39.23,46.195,40.909,45.537,42.805,45.537 M42.865,48.97c-1.134,0-2.075,0.392-2.83,1.18
		c-0.755,0.786-1.13,1.796-1.13,3.025c0,1.263,0.374,2.287,1.117,3.071c0.742,0.784,1.686,1.174,2.829,1.174
		c1.143,0,2.092-0.394,2.851-1.187c0.756-0.792,1.135-1.812,1.135-3.059c0-1.248-0.373-2.258-1.115-3.04
		C44.978,49.357,44.024,48.97,42.865,48.97"/>
	<path fill="#FFFFFF" d="M4.891,27.184v1.603c0.658-0.657,1.371-1.153,2.136-1.481s1.585-0.493,2.458-0.493
		c1.897,0,3.506,0.719,4.834,2.151c1.326,1.432,1.991,3.271,1.991,5.514c0,2.163-0.687,3.973-2.057,5.43
		c-1.372,1.452-2.995,2.183-4.874,2.183c-0.836,0-1.618-0.15-2.338-0.446c-0.72-0.3-1.438-0.786-2.149-1.465v6.853H1.271V27.184
		H4.891z M8.723,30.177c-1.148,0-2.101,0.394-2.858,1.175C5.108,32.136,4.73,33.16,4.73,34.423c0,1.291,0.377,2.335,1.134,3.132
		c0.758,0.797,1.71,1.196,2.858,1.196c1.114,0,2.05-0.406,2.81-1.216c0.763-0.812,1.142-1.842,1.142-3.098
		c0-1.247-0.373-2.269-1.121-3.066C10.806,30.576,9.863,30.177,8.723,30.177"/>
	<path fill="#FFFFFF" d="M37.233,21.202c0.639,0,1.186,0.231,1.645,0.694c0.457,0.462,0.687,1.023,0.687,1.682
		c0,0.652-0.228,1.204-0.681,1.663c-0.452,0.458-0.994,0.688-1.624,0.688c-0.65,0-1.201-0.232-1.658-0.7
		c-0.456-0.468-0.685-1.035-0.685-1.702c0-0.641,0.226-1.189,0.679-1.643C36.046,21.429,36.596,21.202,37.233,21.202 M35.41,27.184
		h3.647v14.53H35.41V27.184z"/>
	<rect x="41.966" y="21.576" fill="#FFFFFF" width="3.648" height="20.138"/>
	<rect x="48.523" y="21.576" fill="#FFFFFF" width="3.645" height="20.138"/>
	<polygon fill="#FFFFFF" points="53.871,27.184 57.597,27.184 61.37,36.302 65.533,27.184 69.271,27.184 60.169,47.03 56.406,47.03 
		59.392,40.632 	"/>
	<path fill="#FFFFFF" d="M28.663,3.429c-0.748-0.705-1.493-1.208-2.237-1.516c-0.744-0.307-1.533-0.46-2.371-0.46
		c-1.79,0-3.332,0.632-4.622,1.896c-1.424,1.397-2.135,3.249-2.135,5.556c0,2.153,0.672,3.936,2.016,5.341
		c1.345,1.407,2.99,2.109,4.94,2.109c0.891,0,1.688-0.138,2.392-0.42c0.701-0.28,1.375-0.741,2.017-1.382
		c0,1.175-0.124,2.582-0.369,3.062c-0.244,0.479-0.664,0.873-1.262,1.174c-0.404,0.206-1.189,0.333-1.767,0.403v0.003
		c-4.102,0.393-5.236,2.363-5.287,2.452c0.002,0,0.005,0,0.007,0.003c-0.524,0.807-0.842,2.012-0.845,3.876l-0.017,16.188h3.617
		v-5.837c0-1.557,0.056-2.555,0.161-2.989c0.205-0.846,0.572-1.403,1.104-1.894c0.528-0.49,1.162-0.844,1.901-0.844
		c0.57,0,1.336,0.146,1.724,0.439c0.389,0.295,0.664,0.74,0.822,1.335c0.16,0.599,0.241,1.738,0.241,3.422l-0.012,12.155
		l-0.019,0.009c-0.748-0.702-1.493-1.209-2.237-1.514c-0.744-0.31-1.533-0.46-2.37-0.46c-1.791,0-3.333,0.631-4.623,1.895
		c-1.424,1.397-2.135,3.251-2.135,5.557c0,2.154,0.672,3.933,2.016,5.338c1.345,1.409,2.99,2.113,4.94,2.113
		c0.891,0,1.688-0.141,2.392-0.422c0.701-0.278,1.375-0.74,2.017-1.381c0,1.173-0.124,2.581-0.368,3.062
		c-0.246,0.479-0.665,0.871-1.263,1.175c-0.597,0.303-1.383,0.454-2.362,0.454c-0.767,0-1.429-0.104-1.991-0.313
		c-0.561-0.211-1.02-0.52-1.375-0.93h-4.021c0.321,0.99,0.814,1.827,1.483,2.52c0.666,0.688,1.485,1.211,2.456,1.567
		s2.167,0.535,3.592,0.535c2.671,0,4.671-0.784,5.995-2.352c0.989-1.159,1.487-3.544,1.487-6l-0.012-26.241
		c0-1.675-0.425-2.944-1.268-3.808c-0.989-0.997-2.205-1.495-3.647-1.495c-0.74,0-1.468,0.151-2.188,0.46
		c-0.724,0.308-1.729,0.769-2.442,1.384v-3.05c0.083-1.243,0.503-2.721,2.986-3.041c0,0-0.003-0.002-0.006-0.006
		c2.078-0.205,3.971-0.964,5.09-2.287c0.989-1.158,1.487-3.541,1.487-6V1.825h-3.634V3.429z M27.748,56.005
		c-0.735,0.757-1.669,1.136-2.797,1.136c-1.16,0-2.12-0.389-2.887-1.163c-0.766-0.774-1.148-1.766-1.148-2.976
		c0-1.167,0.373-2.135,1.122-2.905c0.75-0.771,1.696-1.154,2.845-1.154c1.167,0,2.119,0.377,2.857,1.133
		c0.738,0.757,1.109,1.741,1.109,2.951C28.849,54.256,28.479,55.248,27.748,56.005 M27.748,11.922
		c-0.735,0.756-1.669,1.135-2.797,1.135c-1.16,0-2.12-0.388-2.887-1.161c-0.766-0.776-1.148-1.769-1.148-2.978
		c0-1.168,0.373-2.133,1.122-2.906c0.75-0.77,1.696-1.156,2.845-1.156c1.167,0,2.117,0.38,2.857,1.136
		c0.738,0.757,1.109,1.741,1.109,2.952C28.849,10.173,28.479,11.166,27.748,11.922"/>
	<path fill="#FFFFFF" d="M49.497,5.272c-0.679-1.175-1.62-2.105-2.827-2.791c-1.203-0.686-2.494-1.026-3.865-1.026
		c-1.896,0-3.574,0.658-5.035,1.975c-1.662,1.514-2.496,3.405-2.496,5.674c0,2.118,0.734,3.921,2.21,5.404
		c1.474,1.48,3.254,2.223,5.335,2.223c1.416,0,2.711-0.337,3.887-1.009c1.175-0.672,2.104-1.605,2.783-2.798
		c0.682-1.19,1.021-2.473,1.021-3.845C50.51,7.716,50.172,6.447,49.497,5.272 M45.702,12.149c-0.759,0.793-1.708,1.188-2.851,1.188
		c-1.141,0-2.087-0.391-2.829-1.174c-0.745-0.784-1.117-1.808-1.117-3.071c0-1.23,0.377-2.238,1.13-3.028
		c0.755-0.786,1.696-1.179,2.83-1.179c1.16,0,2.112,0.389,2.856,1.167c0.742,0.779,1.116,1.792,1.116,3.04
		C46.838,10.337,46.457,11.357,45.702,12.149"/>
</g>
<g>
	<path fill="#FFFFFF" d="M39.311,63.665c0.167,0.23,0.25,0.508,0.25,0.83c0,0.332-0.084,0.599-0.252,0.8
		c-0.094,0.113-0.232,0.217-0.415,0.311c0.277,0.101,0.487,0.261,0.628,0.479c0.142,0.219,0.212,0.484,0.212,0.797
		c0,0.322-0.08,0.611-0.242,0.867c-0.103,0.169-0.23,0.312-0.385,0.428c-0.173,0.133-0.379,0.224-0.614,0.272
		c-0.236,0.05-0.492,0.074-0.769,0.074h-2.45v-5.438h2.628C38.564,63.096,39.034,63.288,39.311,63.665z M36.358,64.03v1.198h1.322
		c0.235,0,0.427-0.045,0.574-0.134c0.147-0.09,0.221-0.249,0.221-0.479c0-0.253-0.097-0.42-0.292-0.501
		c-0.168-0.057-0.382-0.085-0.643-0.085H36.358z M36.358,66.129v1.45h1.32c0.235,0,0.419-0.032,0.551-0.096
		c0.237-0.118,0.357-0.345,0.357-0.679c0-0.283-0.116-0.478-0.347-0.583c-0.129-0.06-0.311-0.09-0.543-0.093H36.358z"/>
	<path fill="#FFFFFF" d="M44.732,64.049h-2.877v1.154h2.642v0.944h-2.642v1.398h3.01v0.978h-4.12v-5.438h3.987V64.049z"/>
	<path fill="#FFFFFF" d="M49.702,63.086v0.963h-1.627v4.475h-1.144v-4.475h-1.635v-0.963H49.702z"/>
	<path fill="#FFFFFF" d="M51.364,63.086h1.285l1.925,5.438h-1.232l-0.359-1.118H50.98l-0.369,1.118h-1.188L51.364,63.086z
		 M51.289,66.469h1.393l-0.687-2.14L51.289,66.469z"/>
</g>
</svg>
