<?xml version="1.0" encoding="utf-8"?>
<!-- Generator: Adobe Illustrator 16.0.4, SVG Export Plug-In . SVG Version: 6.00 Build 0)  -->
<!DOCTYPE svg PUBLIC "-//W3C//DTD SVG 1.1//EN" "http://www.w3.org/Graphics/SVG/1.1/DTD/svg11.dtd">
<svg version="1.1" id="Layer_1" xmlns="http://www.w3.org/2000/svg" xmlns:xlink="http://www.w3.org/1999/xlink" x="0px" y="0px"
	 width="110px" height="110px" viewBox="0 0 110 110" enable-background="new 0 0 110 110" xml:space="preserve">
<g>
	<path fill="#DF3032" d="M67.236,70.016c2.178,0,4.224,0.539,6.142,1.631c1.915,1.088,3.409,2.568,4.486,4.432
		c1.073,1.867,1.61,3.881,1.61,6.047c0,2.178-0.541,4.215-1.623,6.105c-1.084,1.896-2.558,3.379-4.424,4.443
		c-1.861,1.068-3.921,1.604-6.169,1.604c-3.312,0-6.136-1.178-8.474-3.531c-2.344-2.357-3.51-5.213-3.51-8.582
		c0-3.604,1.32-6.609,3.965-9.012C61.561,71.061,64.226,70.016,67.236,70.016 M67.332,75.467c-1.801,0-3.295,0.623-4.494,1.875
		c-1.198,1.248-1.795,2.852-1.795,4.805c0,2.006,0.594,3.633,1.775,4.877c1.178,1.246,2.677,1.865,4.492,1.865
		c1.814,0,3.322-0.625,4.527-1.885c1.201-1.258,1.803-2.877,1.803-4.857c0-1.982-0.592-3.586-1.771-4.828
		C70.688,76.084,69.174,75.467,67.332,75.467"/>
	<path fill="#231F20" d="M7.021,40.866v2.545c1.045-1.044,2.177-1.832,3.393-2.353c1.215-0.522,2.518-0.784,3.904-0.784
		c3.013,0,5.569,1.141,7.677,3.417c2.105,2.273,3.162,5.194,3.162,8.756c0,3.436-1.091,6.309-3.268,8.624
		c-2.179,2.307-4.756,3.467-7.741,3.467c-1.329,0-2.57-0.238-3.713-0.709c-1.144-0.477-2.284-1.248-3.414-2.326v10.883h-5.75V40.866
		H7.021z M13.107,45.619c-1.824,0-3.337,0.625-4.541,1.867c-1.202,1.245-1.801,2.872-1.801,4.877c0,2.05,0.6,3.708,1.801,4.974
		c1.204,1.266,2.716,1.9,4.541,1.9c1.769,0,3.256-0.646,4.462-1.932c1.211-1.291,1.814-2.926,1.814-4.92
		c0-1.98-0.592-3.603-1.781-4.87C16.416,46.254,14.917,45.619,13.107,45.619"/>
	<path fill="#231F20" d="M58.389,31.367c1.014,0,1.883,0.366,2.611,1.102c0.727,0.735,1.09,1.626,1.09,2.672
		c0,1.036-0.36,1.912-1.08,2.641c-0.719,0.728-1.58,1.093-2.579,1.093c-1.034,0-1.909-0.369-2.634-1.113
		c-0.724-0.742-1.087-1.644-1.087-2.702c0-1.018,0.359-1.89,1.078-2.61C56.502,31.726,57.375,31.367,58.389,31.367 M55.492,40.866
		h5.792v23.077h-5.792V40.866z"/>
	<rect x="65.904" y="31.96" fill="#231F20" width="5.795" height="31.983"/>
	<rect x="76.319" y="31.96" fill="#231F20" width="5.789" height="31.983"/>
	<polygon fill="#231F20" points="84.812,40.866 90.729,40.866 96.723,55.347 103.335,40.866 109.271,40.866 94.814,72.387 
		88.839,72.387 93.581,62.225 	"/>
	<path fill="#231F20" d="M44.775,3.139c-1.188-1.119-2.371-1.918-3.552-2.408C40.042,0.245,38.788,0,37.457,0
		c-2.843,0-5.291,1.004-7.34,3.012c-2.262,2.218-3.391,5.16-3.391,8.823c0,3.42,1.068,6.251,3.202,8.484
		c2.136,2.234,4.75,3.35,7.846,3.35c1.415,0,2.682-0.22,3.798-0.667c1.113-0.444,2.184-1.176,3.203-2.195
		c0,1.866-0.196,4.1-0.586,4.862c-0.388,0.763-1.053,1.388-2.004,1.865c-0.641,0.327-1.888,0.529-2.806,0.64v0.005
		c-6.515,0.623-8.315,3.753-8.397,3.895c0.004,0,0.008,0,0.011,0.004c-0.832,1.281-1.338,3.196-1.342,6.157l-0.026,25.709h5.745
		v-9.269c0-2.474,0.089-4.058,0.256-4.749c0.325-1.344,0.909-2.229,1.752-3.008c0.838-0.779,1.846-1.34,3.02-1.34
		c0.905,0,2.123,0.233,2.738,0.698c0.617,0.468,1.053,1.177,1.306,2.121c0.254,0.951,0.383,2.761,0.383,5.436l-0.02,19.305
		l-0.029,0.014c-1.188-1.115-2.371-1.92-3.552-2.404c-1.182-0.492-2.435-0.73-3.765-0.73c-2.845,0-5.292,1.002-7.342,3.01
		c-2.262,2.219-3.391,5.162-3.391,8.824c0,3.422,1.068,6.246,3.202,8.479c2.136,2.238,4.75,3.355,7.846,3.355
		c1.415,0,2.682-0.223,3.798-0.67c1.113-0.441,2.184-1.176,3.203-2.193c0,1.863-0.196,4.1-0.584,4.865
		c-0.39,0.76-1.056,1.383-2.006,1.865c-0.948,0.48-2.196,0.721-3.751,0.721c-1.217,0-2.27-0.166-3.162-0.498
		c-0.891-0.334-1.619-0.824-2.184-1.477h-6.385c0.51,1.574,1.293,2.902,2.356,4.002c1.057,1.094,2.359,1.924,3.9,2.49
		c1.542,0.566,3.442,0.85,5.705,0.85c4.242,0,7.418-1.246,9.521-3.734c1.572-1.842,2.361-5.629,2.361-9.529l-0.019-41.678
		c0-2.659-0.675-4.677-2.014-6.047c-1.571-1.584-3.501-2.375-5.792-2.375c-1.176,0-2.332,0.241-3.476,0.73
		c-1.15,0.489-2.747,1.221-3.878,2.198v-4.844c0.132-1.974,0.8-4.32,4.744-4.83c0,0-0.006-0.003-0.01-0.009
		c3.301-0.326,6.306-1.531,8.083-3.632c1.572-1.839,2.361-5.625,2.361-9.529V0.591h-5.772V3.139z M43.322,86.641
		c-1.167,1.203-2.65,1.805-4.442,1.805c-1.842,0-3.366-0.617-4.584-1.848c-1.217-1.23-1.824-2.805-1.824-4.727
		c0-1.854,0.592-3.391,1.782-4.613c1.19-1.225,2.693-1.834,4.519-1.834c1.854,0,3.365,0.6,4.538,1.799
		c1.172,1.203,1.761,2.766,1.761,4.688C45.071,83.863,44.484,85.439,43.322,86.641 M43.322,16.627
		c-1.167,1.201-2.65,1.803-4.442,1.803c-1.842,0-3.366-0.617-4.584-1.844c-1.217-1.232-1.824-2.809-1.824-4.73
		c0-1.855,0.592-3.388,1.782-4.615c1.19-1.222,2.693-1.836,4.519-1.836c1.854,0,3.362,0.604,4.538,1.805
		c1.172,1.202,1.761,2.765,1.761,4.688C45.071,13.85,44.484,15.426,43.322,16.627"/>
	<path fill="#DF3032" d="M77.865,6.065c-1.078-1.866-2.572-3.344-4.489-4.432c-1.911-1.09-3.962-1.63-6.14-1.63
		c-3.011,0-5.676,1.045-7.996,3.136c-2.641,2.404-3.965,5.408-3.965,9.012c0,3.364,1.167,6.228,3.51,8.582
		c2.341,2.352,5.168,3.531,8.474,3.531c2.248,0,4.306-0.534,6.172-1.603c1.866-1.068,3.341-2.549,4.421-4.445
		c1.082-1.891,1.623-3.927,1.623-6.106C79.475,9.948,78.938,7.932,77.865,6.065 M71.838,16.988c-1.205,1.26-2.713,1.887-4.527,1.887
		c-1.811,0-3.314-0.62-4.492-1.865c-1.184-1.246-1.775-2.872-1.775-4.877c0-1.954,0.6-3.554,1.795-4.809
		c1.199-1.248,2.693-1.873,4.494-1.873c1.844,0,3.355,0.618,4.537,1.854c1.18,1.238,1.773,2.846,1.773,4.828
		C73.643,14.11,73.038,15.73,71.838,16.988"/>
</g>
<g>
	<path d="M61.688,98.807c0.265,0.367,0.396,0.807,0.396,1.318c0,0.527-0.134,0.951-0.4,1.271c-0.148,0.18-0.368,0.344-0.658,0.492
		c0.44,0.16,0.773,0.414,0.997,0.762c0.225,0.348,0.337,0.77,0.337,1.266c0,0.512-0.128,0.971-0.385,1.377
		c-0.163,0.27-0.367,0.496-0.611,0.68c-0.275,0.211-0.602,0.355-0.976,0.434c-0.375,0.078-0.782,0.117-1.221,0.117h-3.892v-8.637
		h4.174C60.502,97.902,61.248,98.209,61.688,98.807z M56.998,99.387v1.904h2.1c0.375,0,0.679-0.071,0.913-0.214
		c0.233-0.143,0.351-0.396,0.351-0.759c0-0.402-0.154-0.668-0.464-0.797c-0.267-0.09-0.607-0.135-1.021-0.135H56.998z
		 M56.998,102.721v2.303h2.097c0.375,0,0.666-0.051,0.875-0.152c0.378-0.188,0.567-0.547,0.567-1.078
		c0-0.449-0.184-0.758-0.55-0.926c-0.205-0.094-0.493-0.143-0.863-0.146H56.998z"/>
	<path d="M70.299,99.416h-4.57v1.834h4.195v1.5h-4.195v2.221h4.781v1.553h-6.545v-8.637h6.334V99.416z"/>
	<path d="M78.191,97.887v1.529h-2.584v7.107h-1.816v-7.107h-2.596v-1.529H78.191z"/>
	<path d="M80.831,97.887h2.042l3.056,8.637h-1.957l-0.57-1.775h-3.18l-0.586,1.775h-1.888L80.831,97.887z M80.712,103.26h2.212
		l-1.091-3.398L80.712,103.26z"/>
</g>
</svg>
