<!-- Generator: Adobe Illustrator 18.1.1, SVG Export Plug-In  -->
<svg version="1.1"
	 xmlns="http://www.w3.org/2000/svg" xmlns:xlink="http://www.w3.org/1999/xlink" xmlns:a="http://ns.adobe.com/AdobeSVGViewerExtensions/3.0/"
	 x="0px" y="0px" width="70px" height="68px" viewBox="0 0 70 68" enable-background="new 0 0 70 68"
	 xml:space="preserve">

    <g>
    	<path fill="#FFFFFF" d="M42.6,45.2c1.4,0,2.7,0.3,4,1.1c1.2,0.7,2.2,1.7,2.9,2.9c0.7,1.2,1,2.5,1,3.9c0,1.4-0.3,2.7-1,3.9
    		c-0.7,1.2-1.7,2.2-2.9,2.9c-1.2,0.7-2.5,1-4,1c-2.1,0-4-0.8-5.5-2.3c-1.5-1.5-2.3-3.4-2.3-5.5c0-2.3,0.9-4.3,2.6-5.8
    		C38.9,45.9,40.7,45.2,42.6,45.2 M42.7,48.7c-1.2,0-2.1,0.4-2.9,1.2c-0.8,0.8-1.2,1.8-1.2,3.1c0,1.3,0.4,2.3,1.1,3.1
    		c0.8,0.8,1.7,1.2,2.9,1.2c1.2,0,2.1-0.4,2.9-1.2c0.8-0.8,1.2-1.9,1.2-3.1c0-1.3-0.4-2.3-1.1-3.1C44.8,49.1,43.9,48.7,42.7,48.7"/>
    	<path fill="#FFFFFF" d="M3.7,26.4V28c0.7-0.7,1.4-1.2,2.2-1.5C6.7,26.2,7.5,26,8.4,26c1.9,0,3.6,0.7,5,2.2c1.4,1.5,2,3.4,2,5.7
    		c0,2.2-0.7,4.1-2.1,5.6c-1.4,1.5-3.1,2.2-5,2.2c-0.9,0-1.7-0.2-2.4-0.5c-0.7-0.3-1.5-0.8-2.2-1.5v7H0V26.4H3.7z M7.6,29.5
    		c-1.2,0-2.2,0.4-2.9,1.2c-0.8,0.8-1.2,1.9-1.2,3.2c0,1.3,0.4,2.4,1.2,3.2c0.8,0.8,1.8,1.2,2.9,1.2c1.1,0,2.1-0.4,2.9-1.2
    		c0.8-0.8,1.2-1.9,1.2-3.2c0-1.3-0.4-2.3-1.2-3.1C9.8,29.9,8.8,29.5,7.6,29.5"/>
    	<path fill="#FFFFFF" d="M36.9,20.3c0.7,0,1.2,0.2,1.7,0.7c0.5,0.5,0.7,1,0.7,1.7c0,0.7-0.2,1.2-0.7,1.7c-0.5,0.5-1,0.7-1.7,0.7
    		c-0.7,0-1.2-0.2-1.7-0.7c-0.5-0.5-0.7-1.1-0.7-1.7c0-0.7,0.2-1.2,0.7-1.7C35.7,20.5,36.2,20.3,36.9,20.3 M35,26.4h3.7v14.9H35V26.4
    		z"/>
    	<rect x="41.7" y="20.6" fill="#FFFFFF" width="3.7" height="20.7"/>
    	<rect x="48.5" y="20.6" fill="#FFFFFF" width="3.7" height="20.7"/>
    	<polygon fill="#FFFFFF" points="54,26.4 57.8,26.4 61.6,35.7 65.9,26.4 69.7,26.4 60.4,46.7 56.6,46.7 59.6,40.2 	"/>
    	<path fill="#FFFFFF" d="M28.1,2c-0.8-0.7-1.5-1.2-2.3-1.6C25,0.2,24.2,0,23.4,0c-1.8,0-3.4,0.6-4.7,1.9c-1.5,1.4-2.2,3.3-2.2,5.7
    		c0,2.2,0.7,4,2.1,5.5c1.4,1.4,3.1,2.2,5.1,2.2c0.9,0,1.7-0.1,2.5-0.4c0.7-0.3,1.4-0.8,2.1-1.4c0,1.2-0.1,2.6-0.4,3.1
    		c-0.2,0.5-0.7,0.9-1.3,1.2c-0.4,0.2-1.2,0.3-1.8,0.4v0c-4.2,0.4-5.4,2.4-5.4,2.5c0,0,0,0,0,0c-0.5,0.8-0.9,2.1-0.9,4l0,16.6H22v-6
    		c0-1.6,0.1-2.6,0.2-3.1c0.2-0.9,0.6-1.4,1.1-1.9c0.5-0.5,1.2-0.9,2-0.9c0.6,0,1.4,0.2,1.8,0.5c0.4,0.3,0.7,0.8,0.8,1.4
    		c0.2,0.6,0.2,1.8,0.2,3.5l0,12.5l0,0c-0.8-0.7-1.5-1.2-2.3-1.6c-0.8-0.3-1.6-0.5-2.4-0.5c-1.8,0-3.4,0.6-4.7,1.9
    		c-1.5,1.4-2.2,3.3-2.2,5.7c0,2.2,0.7,4,2.1,5.5c1.4,1.4,3.1,2.2,5.1,2.2c0.9,0,1.7-0.1,2.5-0.4c0.7-0.3,1.4-0.8,2.1-1.4
    		c0,1.2-0.1,2.6-0.4,3.1c-0.3,0.5-0.7,0.9-1.3,1.2c-0.6,0.3-1.4,0.5-2.4,0.5c-0.8,0-1.5-0.1-2-0.3c-0.6-0.2-1-0.5-1.4-1h-4.1
    		c0.3,1,0.8,1.9,1.5,2.6c0.7,0.7,1.5,1.2,2.5,1.6c1,0.4,2.2,0.5,3.7,0.5c2.7,0,4.8-0.8,6.1-2.4c1-1.2,1.5-3.6,1.5-6.2l0-26.9
    		c0-1.7-0.4-3-1.3-3.9c-1-1-2.3-1.5-3.7-1.5c-0.8,0-1.5,0.2-2.2,0.5c-0.7,0.3-1.8,0.8-2.5,1.4v-3.1c0.1-1.3,0.5-2.8,3.1-3.1
    		c0,0,0,0,0,0c2.1-0.2,4.1-1,5.2-2.3c1-1.2,1.5-3.6,1.5-6.2V0.4h-3.7V2z M27.2,56c-0.8,0.8-1.7,1.2-2.9,1.2c-1.2,0-2.2-0.4-3-1.2
    		c-0.8-0.8-1.2-1.8-1.2-3.1c0-1.2,0.4-2.2,1.2-3c0.8-0.8,1.7-1.2,2.9-1.2c1.2,0,2.2,0.4,2.9,1.2c0.8,0.8,1.1,1.8,1.1,3
    		C28.3,54.2,27.9,55.2,27.2,56 M27.2,10.7c-0.8,0.8-1.7,1.2-2.9,1.2c-1.2,0-2.2-0.4-3-1.2c-0.8-0.8-1.2-1.8-1.2-3.1
    		c0-1.2,0.4-2.2,1.2-3c0.8-0.8,1.7-1.2,2.9-1.2c1.2,0,2.2,0.4,2.9,1.2c0.8,0.8,1.1,1.8,1.1,3C28.3,8.9,27.9,10,27.2,10.7"/>
    	<path fill="#FFFFFF" d="M49.5,3.9c-0.7-1.2-1.7-2.2-2.9-2.9C45.3,0.3,44,0,42.6,0c-1.9,0-3.7,0.7-5.2,2c-1.7,1.6-2.6,3.5-2.6,5.8
    		c0,2.2,0.8,4,2.3,5.5c1.5,1.5,3.3,2.3,5.5,2.3c1.5,0,2.8-0.3,4-1c1.2-0.7,2.2-1.6,2.9-2.9c0.7-1.2,1-2.5,1-3.9
    		C50.5,6.4,50.2,5.1,49.5,3.9 M45.6,11c-0.8,0.8-1.8,1.2-2.9,1.2c-1.2,0-2.1-0.4-2.9-1.2c-0.8-0.8-1.1-1.9-1.1-3.2
    		c0-1.3,0.4-2.3,1.2-3.1c0.8-0.8,1.7-1.2,2.9-1.2c1.2,0,2.2,0.4,2.9,1.2c0.8,0.8,1.1,1.8,1.1,3.1C46.7,9.1,46.3,10.2,45.6,11"/>
    </g>
</svg>
