<!-- Generator: Adobe Illustrator 18.1.1, SVG Export Plug-In  -->
<svg version="1.1"
	 xmlns="http://www.w3.org/2000/svg" xmlns:xlink="http://www.w3.org/1999/xlink" xmlns:a="http://ns.adobe.com/AdobeSVGViewerExtensions/3.0/"
	 x="0px" y="0px" width="108px" height="102px" viewBox="0 0 108 102" enable-background="new 0 0 108 102"
	 xml:space="preserve">
    <g>
    	<path fill="#DF3032" d="M64.9,68.9c2.1,0,4.2,0.5,6,1.6c1.9,1.1,3.4,2.5,4.4,4.4c1.1,1.8,1.6,3.8,1.6,5.9c0,2.1-0.5,4.1-1.6,6
    		c-1.1,1.9-2.5,3.3-4.4,4.4c-1.8,1.1-3.9,1.6-6.1,1.6c-3.3,0-6-1.2-8.3-3.5c-2.3-2.3-3.5-5.1-3.5-8.4c0-3.5,1.3-6.5,3.9-8.9
    		C59.3,69.9,61.9,68.9,64.9,68.9 M65,74.2c-1.8,0-3.2,0.6-4.4,1.8c-1.2,1.2-1.8,2.8-1.8,4.7c0,2,0.6,3.6,1.7,4.8
    		c1.2,1.2,2.6,1.8,4.4,1.8c1.8,0,3.3-0.6,4.5-1.9c1.2-1.2,1.8-2.8,1.8-4.8c0-2-0.6-3.5-1.7-4.7C68.3,74.8,66.8,74.2,65,74.2"/>
    	<path fill="#231F20" d="M5.7,40.2v2.5c1-1,2.1-1.8,3.3-2.3c1.2-0.5,2.5-0.8,3.8-0.8c3,0,5.5,1.1,7.6,3.4c2.1,2.2,3.1,5.1,3.1,8.6
    		c0,3.4-1.1,6.2-3.2,8.5c-2.1,2.3-4.7,3.4-7.6,3.4c-1.3,0-2.5-0.2-3.7-0.7c-1.1-0.5-2.2-1.2-3.4-2.3v10.7H0v-31H5.7z M11.6,44.9
    		c-1.8,0-3.3,0.6-4.5,1.8c-1.2,1.2-1.8,2.8-1.8,4.8c0,2,0.6,3.6,1.8,4.9c1.2,1.2,2.7,1.9,4.5,1.9c1.7,0,3.2-0.6,4.4-1.9
    		c1.2-1.3,1.8-2.9,1.8-4.8c0-1.9-0.6-3.5-1.8-4.8C14.9,45.5,13.4,44.9,11.6,44.9"/>
    	<path fill="#231F20" d="M56.2,30.8c1,0,1.9,0.4,2.6,1.1c0.7,0.7,1.1,1.6,1.1,2.6c0,1-0.4,1.9-1.1,2.6c-0.7,0.7-1.6,1.1-2.5,1.1
    		c-1,0-1.9-0.4-2.6-1.1c-0.7-0.7-1.1-1.6-1.1-2.7c0-1,0.4-1.9,1.1-2.6C54.3,31.2,55.2,30.8,56.2,30.8 M53.3,40.2H59v22.7h-5.7V40.2z
    		"/>
    	<rect x="63.6" y="31.4" fill="#231F20" width="5.7" height="31.5"/>
    	<rect x="73.8" y="31.4" fill="#231F20" width="5.7" height="31.5"/>
    	<polygon fill="#231F20" points="82.2,40.2 88,40.2 93.9,54.4 100.4,40.2 106.2,40.2 92,71.2 86.1,71.2 90.8,61.2 	"/>
    	<path fill="#231F20" d="M42.8,3.1c-1.2-1.1-2.3-1.9-3.5-2.4C38.1,0.2,36.9,0,35.6,0c-2.8,0-5.2,1-7.2,3C26.1,5.1,25,8,25,11.6
    		c0,3.4,1,6.1,3.1,8.3c2.1,2.2,4.7,3.3,7.7,3.3c1.4,0,2.6-0.2,3.7-0.7c1.1-0.4,2.1-1.2,3.1-2.2c0,1.8-0.2,4-0.6,4.8
    		c-0.4,0.8-1,1.4-2,1.8c-0.6,0.3-1.9,0.5-2.8,0.6v0c-6.4,0.6-8.2,3.7-8.3,3.8c0,0,0,0,0,0c-0.8,1.3-1.3,3.1-1.3,6.1l0,25.3h5.6v-9.1
    		c0-2.4,0.1-4,0.3-4.7c0.3-1.3,0.9-2.2,1.7-3c0.8-0.8,1.8-1.3,3-1.3c0.9,0,2.1,0.2,2.7,0.7c0.6,0.5,1,1.2,1.3,2.1
    		c0.2,0.9,0.4,2.7,0.4,5.3l0,19l0,0c-1.2-1.1-2.3-1.9-3.5-2.4c-1.2-0.5-2.4-0.7-3.7-0.7c-2.8,0-5.2,1-7.2,3C26.1,74,25,76.9,25,80.5
    		c0,3.4,1,6.1,3.1,8.3c2.1,2.2,4.7,3.3,7.7,3.3c1.4,0,2.6-0.2,3.7-0.7c1.1-0.4,2.1-1.2,3.1-2.2c0,1.8-0.2,4-0.6,4.8
    		c-0.4,0.7-1,1.4-2,1.8c-0.9,0.5-2.2,0.7-3.7,0.7c-1.2,0-2.2-0.2-3.1-0.5c-0.9-0.3-1.6-0.8-2.1-1.5H25c0.5,1.5,1.3,2.9,2.3,3.9
    		c1,1.1,2.3,1.9,3.8,2.4c1.5,0.6,3.4,0.8,5.6,0.8c4.2,0,7.3-1.2,9.4-3.7c1.5-1.8,2.3-5.5,2.3-9.4l0-41c0-2.6-0.7-4.6-2-5.9
    		c-1.5-1.6-3.4-2.3-5.7-2.3c-1.2,0-2.3,0.2-3.4,0.7c-1.1,0.5-2.7,1.2-3.8,2.2v-4.8c0.1-1.9,0.8-4.2,4.7-4.7c0,0,0,0,0,0
    		c3.2-0.3,6.2-1.5,8-3.6c1.5-1.8,2.3-5.5,2.3-9.4V0.6h-5.7V3.1z M41.4,85.2C40.2,86.4,38.8,87,37,87c-1.8,0-3.3-0.6-4.5-1.8
    		c-1.2-1.2-1.8-2.8-1.8-4.6c0-1.8,0.6-3.3,1.8-4.5c1.2-1.2,2.6-1.8,4.4-1.8c1.8,0,3.3,0.6,4.5,1.8c1.2,1.2,1.7,2.7,1.7,4.6
    		C43.1,82.5,42.5,84,41.4,85.2 M41.4,16.4c-1.1,1.2-2.6,1.8-4.4,1.8c-1.8,0-3.3-0.6-4.5-1.8c-1.2-1.2-1.8-2.8-1.8-4.7
    		c0-1.8,0.6-3.3,1.8-4.5c1.2-1.2,2.6-1.8,4.4-1.8c1.8,0,3.3,0.6,4.5,1.8c1.2,1.2,1.7,2.7,1.7,4.6C43.1,13.6,42.5,15.2,41.4,16.4"/>
    	<path fill="#DF3032" d="M75.3,6c-1.1-1.8-2.5-3.3-4.4-4.4C69,0.5,67,0,64.9,0c-3,0-5.6,1-7.9,3.1c-2.6,2.4-3.9,5.3-3.9,8.9
    		c0,3.3,1.1,6.1,3.5,8.4c2.3,2.3,5.1,3.5,8.3,3.5c2.2,0,4.2-0.5,6.1-1.6c1.8-1,3.3-2.5,4.3-4.4c1.1-1.9,1.6-3.9,1.6-6
    		C76.9,9.8,76.4,7.8,75.3,6 M69.4,16.7c-1.2,1.2-2.7,1.9-4.5,1.9c-1.8,0-3.3-0.6-4.4-1.8c-1.2-1.2-1.7-2.8-1.7-4.8
    		c0-1.9,0.6-3.5,1.8-4.7C61.7,6,63.2,5.4,65,5.4c1.8,0,3.3,0.6,4.5,1.8c1.2,1.2,1.7,2.8,1.7,4.7C71.2,13.9,70.6,15.5,69.4,16.7"/>
    </g>
</svg>
